<svg width="83" height="47" viewBox="0 0 83 47" fill="none" xmlns="http://www.w3.org/2000/svg">
<g clip-path="url(#clip0_100_7787)">
<path fill-rule="evenodd" clip-rule="evenodd" d="M82.3462 11.6064C85.0095 22.8001 68.7997 37.1975 46.1442 43.7622C23.4803 50.3313 2.9478 46.583 0.284455 35.3893C-2.37889 24.1998 13.8309 9.80242 36.4907 3.2334C59.1504 -3.33562 79.6786 0.41689 82.3462 11.6064Z" fill="#00549F"/>
<path d="M13.1892 32.3603C13.1637 33.6239 14.5592 34.0451 15.9759 34.0451C17.5544 34.0451 19.503 33.3091 19.8986 31.0457L20.2135 29.229C18.9499 30.7563 17.163 31.1222 15.8994 31.1478C12.5042 31.1733 10.2706 29.0162 10.2706 25.519C10.2706 20.4433 14.0571 17.4183 18.4266 17.4694C20.0561 17.4694 21.426 18.231 21.8727 19.2861L22.2642 17.814H25.9188L23.6852 31.1222C22.8938 35.5682 19.6859 37.487 15.4526 37.487C11.849 37.487 9.00699 35.8022 9.42819 32.3561H13.1892V32.3603ZM14.1337 24.9191C14.1337 26.7358 15.342 27.6803 16.9758 27.6803C21.392 27.6803 22.6301 20.8177 18.2096 20.8177C16.0781 20.8177 14.1337 22.3153 14.1337 24.9191Z" fill="white"/>
<path d="M40.5755 17.7624L38.2865 30.7813H34.5L36.7889 17.7624H40.5755ZM37.3591 15.1671C37.3591 16.2137 38.1249 16.7455 39.0098 16.7243C40.0564 16.703 41.2392 15.9584 41.2392 14.5161C41.2392 13.4951 40.4734 12.959 39.614 12.959C38.5461 12.959 37.3591 13.7035 37.3591 15.1671Z" fill="white"/>
<path d="M56.8243 17.0307C57.0625 15.716 57.8241 15.2651 59.0324 15.2651C59.5472 15.2651 60.1471 15.3799 60.6789 15.682C60.9554 14.6822 61.4107 13.6739 62.1297 12.8059C61.3 12.3039 60.4406 12.0273 59.2451 12.0273C56.7179 12.0273 53.7737 12.7166 53.0377 17.0307L52.9058 17.7923H47.5196L47.6515 17.0307C47.8855 15.716 48.6513 15.2651 49.8596 15.2651C50.3744 15.2651 50.97 15.3799 51.5061 15.682C51.7826 14.6822 52.2379 13.6739 52.9526 12.8059C52.123 12.3039 51.2678 12.0273 50.068 12.0273C47.5451 12.0273 44.5967 12.7166 43.8606 17.0307L43.7288 17.7923H41.4398L40.8867 20.9747H43.1757L41.4951 30.7814H45.2817L46.9665 20.9747H52.3527L50.6679 30.7814H54.4545L56.1393 20.9747H58.0751C58.8409 19.6557 59.9514 18.5666 61.3086 17.7923H56.6924L56.8243 17.0307Z" fill="white"/>
<path d="M35.1975 21.6731L35.8995 17.7546C35.4272 17.5845 34.9039 17.4951 34.3253 17.4951C32.8788 17.4951 31.6407 18.0227 30.5388 19.231L30.5132 17.81H26.9862L24.6973 30.7778H28.4838L29.6666 24.0173C30.0112 22.0688 31.5854 21.0179 33.2191 21.0179C34.0062 21.0179 34.6401 21.2264 35.189 21.6773L35.1975 21.6688V21.6731Z" fill="white"/>
<path d="M57.8867 25.4423C57.8867 20.9963 61.4393 17.499 66.3065 17.499C70.1228 17.499 72.3564 19.8943 72.3564 23.2086C72.3564 27.6291 68.9358 31.0753 63.9112 31.0753C60.0693 31.0753 57.8867 28.7353 57.8867 25.4465M68.4593 23.7319C68.4593 22.3109 67.6977 20.8899 65.7236 20.8899C63.1453 20.8899 61.7796 23.0725 61.7796 24.8892C61.7796 26.3102 62.571 27.7057 64.5153 27.7057C67.1957 27.7057 68.4593 25.5997 68.4593 23.7319Z" fill="white"/>
</g>
<defs>
<clipPath id="clip0_100_7787">
<rect width="82.6318" height="47" fill="white"/>
</clipPath>
</defs>
</svg>
